<?xml version="1.0" encoding="utf-8"?>
<!-- Generator: Adobe Illustrator 25.0.0, SVG Export Plug-In . SVG Version: 6.00 Build 0)  -->
<svg version="1.1" id="Layer_1" xmlns="http://www.w3.org/2000/svg" xmlns:xlink="http://www.w3.org/1999/xlink" x="0px" y="0px"
	 viewBox="0 0 1125 2436" style="enable-background:new 0 0 1125 2436;" xml:space="preserve">
<style type="text/css">
	.st0{fill:#524FA1;}
</style>
<g>
	<path class="st0" d="M644.2,808.8v29.7c0,0.1,0,0.3,0,0.4c-0.3,1.6-0.6,3.1-0.9,4.6c-1.9,12.7-2.8,25.6-5.9,38
		c-23.8,93-81.6,155-172.2,186.3c-13.9,4.8-28.6,7.2-43.3,10.6c-1.3,0.3-2.5-0.7-2.5-2V879.1c0-1.1,0.9-2,2-2h57.6
		c1,0,1.9-0.8,2-1.8c2.9-22.6,5.8-44.8,8.7-67.5c0.2-1.2-0.8-2.3-2-2.3h-66.4c-1.1,0-2-0.9-2-2c0-17.1-0.3-33.6,0.2-50.1
		c0.1-4.8,1.5-9.9,3.7-14.3c4.6-9.6,13.7-12.8,23.6-13.3c13.3-0.7,26.6-0.5,40.1-0.7c1.2,0,2.4-0.1,3.7-0.2c1.1-0.1,1.9-1,1.9-2
		c0-19.9,0.1-39.3-0.2-58.7c0-1.2-2.3-3.3-3.5-3.4c-20.2-0.9-40.4-2.5-60.5-1.9c-19.6,0.4-37.7,6.8-52.9,19.7
		c-19.8,16.7-28.2,38.9-29.6,63.9c-1,19-0.5,38-0.7,57.1v4.3c0,1.1-0.9,2-2,2h-57.3c-1.1,0-2,0.9-2,2v67.6c0,1.1,0.9,2,2,2h57
		c1.1,0,2,0.9,2,2v196.3c-0.3,0-0.5,0.1-0.7,0.2c-0.3,0.1-0.6,0.1-0.9,0.1c-0.5-0.1-1.1-0.2-1.6-0.2c-40.9-7.7-77.8-24.2-110.7-49.7
		c-39.2-30.4-67.5-69-84.2-115.7c-21.7-61.3-20.2-122.3,3.8-182.8c36.7-92.5,128.7-157,228.2-160c46.1-1.3,90.1,8,130.4,30.4
		c71.9,40,116,100.6,131.4,181.7c1.7,9.5,2.6,19.2,3.9,28.9C644.2,808.7,644.2,808.8,644.2,808.8z"/>
</g>
</svg>
