<?xml version="1.0" encoding="utf-8"?>
<!-- Generator: Adobe Illustrator 25.0.0, SVG Export Plug-In . SVG Version: 6.00 Build 0)  -->
<svg version="1.1" id="Layer_1" xmlns="http://www.w3.org/2000/svg" xmlns:xlink="http://www.w3.org/1999/xlink" x="0px" y="0px"
	 viewBox="0 0 612 792" style="enable-background:new 0 0 612 792;" xml:space="preserve">
<style type="text/css">
	.st0{fill:#FFFFFF;}
	.st1{fill:#B72467;}
	.st2{fill:none;}
</style>
<path class="st0" d="M395,367.4c0,7.6-6,13.4-13.7,13.3c-7.4-0.1-13.2-6-13.2-13.4c0-7.6,6-13.4,13.6-13.3
	C389.2,354.2,395,360.1,395,367.4z"/>
<path class="st1" d="M302.7,348c8.2,0,16.2,0,24.4,0c1,0.2,1.9,0.5,3,0.6c30.4,2.3,58.9,11,84.8,27c50.3,31,81.4,75.6,92.3,134
	c1.3,7.1,2,14.3,3,21.4c0,8.2,0,16.2,0,24.4c-0.3,2.5-0.7,5-0.9,7.6c-4.2,38.6-18.2,73.3-42.9,103.3
	c-30.7,37.4-69.9,60.6-117.4,69.2c-7.2,1.3-14.5,2.1-21.8,3.1c-8.2,0-16.2,0-24.4,0c-4.8-0.6-9.5-1.1-14.3-1.8
	c-36-5.1-68.3-18.8-96.5-41.9c-37.3-30.7-60.6-69.9-69.2-117.4c-1.3-7.2-2.1-14.6-3.1-21.8c0-8.2,0-16.2,0-24.4
	c0.3-2.5,0.6-5,0.9-7.5c4.5-41.3,20.1-77.9,47.7-109.1c30.4-34.2,68.1-55.6,113.3-63.5C288.6,349.7,295.7,349,302.7,348z
	 M315.2,432.6c-16.2,0-32.3-1.1-48.4-0.7c-13,0.3-25.5,3.4-36.5,10.8c-18.4,12.4-26.2,30.5-26.6,51.8c-0.7,32.5-0.4,65.1-0.1,97.5
	c0.2,12.7,3.4,24.9,10.7,35.7c12.4,18.3,30.6,26.2,51.8,26.6c32.5,0.7,65.1,0.6,97.5,0c17.8-0.3,33.9-6.2,46.4-19.8
	c11.1-12.3,15.7-27.2,16.1-43.3c0.6-26.7,0.7-53.4,0.7-80.1c0-7.9-0.6-15.7-1.4-23.6c-3.1-30.3-24.6-52.3-55-54.8
	C352.1,431.3,315.2,432.2,315.2,432.6z"/>
<path class="st2" d="M372.7,435.1c30.4,2.5,49.6,22.2,52.7,52.5c0.8,7.9,1.4,15.7,1.4,23.6c0,26.7-0.1,53.4-0.7,80.1
	c-0.4,16.1-4.9,31-16.1,43.3c-12.4,13.7-28.5,19.5-46.4,19.8c-32.5,0.5-65.1,0.6-97.5,0c-21.2-0.5-39.4-8.3-51.8-26.6
	c-7.2-10.8-10.5-23-10.7-35.7c-0.4-32.5-0.6-65.1,0.1-97.5c0.5-21.2,8.3-39.4,26.6-51.8c11-7.4,23.4-10.4,36.5-10.8
	c16.1-0.4,32.3-0.1,48.4-0.1C315.2,431.4,354.4,433.5,372.7,435.1z M314.9,635.5c0-0.2,0-0.3,0-0.5c8.5,0,17,0.2,25.5,0
	c8.5-0.2,17-0.4,25.5-1c23.3-1.7,38.9-16.4,39.5-39.8c0.9-33.9,0.9-67.8,0-101.7c-0.6-23.7-16-39-39.7-39.8c-32-1-64-0.7-96-0.6
	c-8.5,0-17,1.5-24.7,5.6c-13.7,7.2-20.4,19.4-20.7,34.2c-0.7,34-0.9,68.1,0,102.1c0.7,24,15.9,38.7,40,40.1
	C281.1,635,298,635,314.9,635.5z"/>
<path class="st1" d="M314.9,635.5c-16.9-0.5-33.8-0.5-50.6-1.5c-23.9-1.4-39.3-16.1-40-40.1c-0.9-34-0.7-68.1,0-102.1
	c0.3-14.7,7-26.9,20.7-34.2c7.7-4,16.2-5.6,24.7-5.6c32,0,64.1-0.4,96,0.6c23.7,0.8,39.1,16.1,39.7,39.8c0.9,33.9,0.9,67.8,0,101.7
	c-0.6,23.5-16.2,38.1-39.5,39.8c-8.5,0.6-17,0.8-25.5,1c-8.5,0.2-17,0.1-25.5,0.1C314.9,635.1,314.9,635.3,314.9,635.5z
	 M372.4,543.1c-0.1-31.8-25.6-57.4-57.4-57.4c-31.9-0.1-57.7,25.7-57.7,57.6c0.1,31.7,25.6,57.4,57.4,57.4
	C346.6,600.8,372.5,575,372.4,543.1z M388.1,483.3c0-7.4-5.9-13.3-13.2-13.4c-7.6-0.1-13.6,5.8-13.6,13.3c0,7.4,5.8,13.3,13.2,13.4
	C382.1,496.8,388.1,490.9,388.1,483.3z"/>
<path class="st2" d="M372.4,543.1c0.1,31.9-25.8,57.7-57.7,57.6c-31.8-0.1-57.4-25.7-57.4-57.4c-0.1-31.9,25.8-57.7,57.7-57.6
	C346.8,485.8,372.3,511.3,372.4,543.1z M314.8,505.8c-20.5,0-37.3,16.8-37.3,37.3c0,20.5,16.7,37.4,37.2,37.4
	c20.7,0.1,37.6-16.8,37.5-37.5C352.2,522.5,335.4,505.8,314.8,505.8z"/>
<path class="st1" d="M314.8,505.8c20.6,0,37.4,16.7,37.4,37.2c0.1,20.7-16.8,37.6-37.5,37.5c-20.5-0.1-37.2-16.9-37.2-37.4
	C277.5,522.6,294.3,505.8,314.8,505.8z"/>
</svg>
