<?xml version="1.0" encoding="utf-8"?>
<!-- Generator: Adobe Illustrator 25.0.0, SVG Export Plug-In . SVG Version: 6.00 Build 0)  -->
<svg version="1.1" id="Layer_1" xmlns="http://www.w3.org/2000/svg" xmlns:xlink="http://www.w3.org/1999/xlink" x="0px" y="0px"
	 viewBox="0 0 1125 2436" style="enable-background:new 0 0 1125 2436;" xml:space="preserve">
<style type="text/css">
	.st0{fill:#FFFFFF;}
	.st1{fill:#0077B5;}
</style>
<path class="st0" d="M710.4,1325.9h-58.8c-0.9,0-1.7-0.7-1.7-1.7c0-1.3,0-2.6,0-3.8c0-31.1,0.2-62.2-0.1-93.3
	c-0.1-7.2-0.7-14.7-2.7-21.6c-5.9-20.9-29.2-28.9-47.1-16.4c-9,6.3-14.7,14.9-15.2,26.2c-0.4,9.8-0.4,19.6-0.4,29.4
	c0,24.9,0,49.9,0,74.8v4.5c0,0.9-0.7,1.7-1.7,1.7h-58.6c-0.9,0-1.7-0.7-1.7-1.7v-183.4c0-0.9,0.7-1.7,1.7-1.7h58.5
	c0.9,0,1.7,0.7,1.7,1.7v19.4c0,1.6,2,2.3,3,1c0,0,0,0,0,0c15.2-21.5,36.7-29.1,61.9-26.1c35.1,4.1,57,27,61.5,63.4
	c0.9,7.1,1.3,14.3,1.4,21.4c0.1,33.8,0.1,67.5,0.1,101.3c0,1-0.1,2.1-0.1,3.3C712,1325.2,711.2,1325.9,710.4,1325.9z"/>
<path class="st0" d="M425.9,1140.4c0-0.9,0.7-1.7,1.7-1.7c2.4,0,4.5,0,6.6,0c16.3,0,32.6,0.1,48.9-0.1c3.6,0,5.2,0.9,4.8,4.7
	c-0.3,2.8,0,5.7,0,8.5c0,55.9,0,111.8,0,167.7v4.6c0,0.9-0.7,1.7-1.6,1.7h-58.7c-0.9,0-1.6-0.7-1.6-1.7L425.9,1140.4L425.9,1140.4z"
	/>
<path class="st0" d="M454.9,1048.6c26.9,0.1,42.7,20.9,35.3,43c-6.1,18.1-29.1,27.1-48.6,18.9c-17.3-7.2-24.8-27.2-16.3-44
	C431.9,1053.3,443.6,1049,454.9,1048.6z"/>
<path class="st1" d="M821.1,1202.2v31.7c0,0.1,0,0.1,0,0.2c-0.4,3.2-0.9,6.5-1.2,9.7c-5.5,50.6-23.8,95.9-56,135.2
	c-40.1,48.9-91.4,79.3-153.8,90.6c-9.4,1.7-18.9,2.7-28.4,3.9c-0.1,0-0.1,0-0.2,0h-31.6c-0.1,0-0.3,0-0.4,0
	c-1.2-0.3-2.4-0.7-3.6-0.8c-55.8-4.5-105.4-24.6-147.2-61.7c-65.5-58.1-94.7-131.5-87.1-218.7c4.8-54.4,26.1-102.5,62.6-143.3
	c49.8-55.7,112.5-84.7,187.2-86.5c48.3-1.2,93.7,10.6,135,35.9c66.1,40.5,106.7,99,120.9,175.4c1.7,9.3,2.6,18.6,3.9,28
	C821.1,1202,821.1,1202.1,821.1,1202.2z M713.9,1348.6c0.9,0,1.6-0.7,1.7-1.6c0.1-1.2,0.1-2.2,0.1-3.3c0-33.8,0.1-67.5-0.1-101.3
	c0-7.1-0.5-14.3-1.4-21.4c-4.5-36.5-26.3-59.4-61.5-63.4c-25.2-2.9-46.7,4.6-61.9,26.1c0,0,0,0,0,0c-0.9,1.3-3,0.6-3-1v-19.4
	c0-0.9-0.7-1.7-1.7-1.7h-58.5c-0.9,0-1.7,0.7-1.7,1.7v183.4c0,0.9,0.7,1.7,1.7,1.7h58.6c0.9,0,1.7-0.7,1.7-1.7v-4.5
	c0-24.9,0-49.9,0-74.8c0-9.8,0-19.6,0.4-29.4c0.5-11.3,6.2-19.9,15.2-26.2c17.9-12.5,41.1-4.6,47.1,16.4c2,6.9,2.6,14.4,2.7,21.6
	c0.3,31.1,0.1,62.2,0.1,93.3c0,1.3,0,2.5,0,3.8c0,0.9,0.7,1.7,1.7,1.7L713.9,1348.6L713.9,1348.6z M429.4,1163.1v183.7
	c0,0.9,0.7,1.7,1.6,1.7h58.7c0.9,0,1.6-0.7,1.6-1.7v-4.6c0-55.9,0-111.8,0-167.7c0-2.8-0.2-5.7,0-8.5c0.4-3.8-1.2-4.8-4.8-4.7
	c-16.3,0.2-32.6,0.1-48.9,0.1c-2.1,0-4.3,0-6.6,0C430.2,1161.5,429.4,1162.2,429.4,1163.1z M458.4,1071.3
	c-11.3,0.4-23,4.8-29.6,17.8c-8.5,16.8-1,36.8,16.3,44c19.5,8.2,42.5-0.8,48.6-18.9C501.1,1092.2,485.3,1071.4,458.4,1071.3z"/>
</svg>
